<svg xmlns="http://www.w3.org/2000/svg" xmlns:xlink="http://www.w3.org/1999/xlink" viewBox="0 0 483.7 364.04"><defs><style>.cls-1{fill:none;}.cls-2{isolation:isolate;}.cls-3{fill:url(#radial-gradient);}.cls-4{fill:url(#radial-gradient-2);}.cls-5{fill:url(#radial-gradient-3);}.cls-6{fill:url(#radial-gradient-4);}.cls-7{fill:url(#radial-gradient-5);}.cls-8{fill:#b58abf;opacity:0.3;}.cls-10,.cls-8{mix-blend-mode:multiply;}.cls-9{fill:url(#radial-gradient-6);}.cls-10{opacity:0.05;}.cls-11{fill:#b59478;}.cls-12{fill:#c6a78b;}.cls-13,.cls-16{fill:#a38066;}.cls-14{fill:#b7977d;}.cls-15{clip-path:url(#clip-path);}.cls-16{opacity:0.82;}.cls-17{clip-path:url(#clip-path-2);}.cls-18{fill:#c6ab99;}.cls-19{fill:#d8b79c;}.cls-20{fill:#ba9b85;}.cls-21{fill:url(#radial-gradient-7);}</style><radialGradient id="radial-gradient" cx="23.43" cy="177.19" r="185.9" gradientUnits="userSpaceOnUse"><stop offset="0.17" stop-color="#9d5993"/><stop offset="1" stop-color="#413463"/></radialGradient><radialGradient id="radial-gradient-2" cx="197.88" cy="119.42" r="63.23" gradientUnits="userSpaceOnUse"><stop offset="0"/><stop offset="1" stop-color="#413463" stop-opacity="0"/></radialGradient><radialGradient id="radial-gradient-3" cx="349.07" cy="162.74" r="116.27" xlink:href="#radial-gradient"/><radialGradient id="radial-gradient-4" cx="247.66" cy="133.59" r="66.81" xlink:href="#radial-gradient-2"/><radialGradient id="radial-gradient-5" cx="146.28" cy="129.19" r="155.52" xlink:href="#radial-gradient"/><radialGradient id="radial-gradient-6" cx="289.02" cy="164.04" r="63.48" xlink:href="#radial-gradient-2"/><clipPath id="clip-path"><rect class="cls-1" x="272.9" y="211.61" width="51.03" height="62.9"/></clipPath><clipPath id="clip-path-2"><rect class="cls-1" x="170.61" y="205.37" width="45.74" height="62.9"/></clipPath><radialGradient id="radial-gradient-7" cx="209.64" cy="160.76" r="93.58" xlink:href="#radial-gradient"/></defs><g class="cls-2"><g id="Layer_1" data-name="Layer 1"><path class="cls-3" d="M236.56,148.4C209.39,109,155.39,108,136.39,133s0,50,9,63,26.4,39.31,9.2,57.65-25.2,8.35-22.2,1.35,10-3,10-3a9.39,9.39,0,0,0-9-6c-7,0-12,7-12,16,0,8.24,8,20,36,13s20.38-57.54,20.38-57.54l8.45-39Z"/><path class="cls-4" d="M207.74,165.64l11.64-35c-28.54-21.1-67.46-18.05-83,2.39a42.84,42.84,0,0,0-4,6.27l26.22,32.24,38.26.62Z"/><path class="cls-5" d="M217.24,146.57c37.51-81.4,107.72-84.47,132-42.85S330.86,240.88,377.3,268.91c35.43,21.38,42.13-17.11,38.55-36.26s27.82-37.9,35.69-22c4.66,9.44.83,18.36-19.22,16.7,0,0,18.83-1.86,11.05-11.28-2.6-3.13-10.86-3.83-14.65,7.73s14.53,38.87,5.07,58.21c-9.87,20.18-39.27,35.17-75.25,13.93a52.16,52.16,0,0,1-11.8-9.65L336.39,275.1"/><path class="cls-6" d="M292.1,78.25c-13.91,2.31-28.48,9.28-42,21.63l19.5,29.31,36,8.29,19.4-3.06L303,95.48Z"/><path class="cls-7" d="M293.79,149.46C234.39,42,143.39,19,84.39,73s-21,116-3,136-10,34-14,26c-6.41-12.81,10-14,10-14s-10-11-20,0c-6.21,6.82-3,25,21,24s43-21,26-79c-13.3-45.36,48-60.1,84-15"/><path class="cls-8" d="M244.39,150c-54-57-116-54-138-34s-13,54-4,78-3,43-24,51c24-1,43-21,26-79-13.3-45.36,48-60.1,84-15l56.16-.82Z"/><path class="cls-9" d="M260.63,101.44,189.83,127l11.41,23.79,92.55-1.35A277.75,277.75,0,0,0,260.63,101.44Z"/><path class="cls-10" d="M348.12,287.81c4.45-4.6,15.42-14.29,31.42-17.62-.74-.4-1.48-.82-2.24-1.28-30.52-18.42-22.58-66-20.43-108.26l-10.36-10.14V286.13l.27.28C347.22,286.89,347.67,287.35,348.12,287.81Z"/><path class="cls-8" d="M421.6,290c-11.87,12.64-43.15,9.45-77.36-33.32l-24.09,1,26.64,28.77A52.44,52.44,0,0,0,358.47,296c36,21.3,65.44,6.3,75.32-13.89,2.74-5.61,3.2-12.48,2.55-19.53A61.7,61.7,0,0,1,421.6,290Z"/><path class="cls-8" d="M66.88,216.12h0c-2.93,0-6.21,1.27-9.49,4.88-4.41,4.84-4.06,15.4,5.1,20.77C54.62,230.56,58.62,221.65,66.88,216.12Z"/><polygon class="cls-11" points="154.59 152.62 154.59 283.21 241.06 306.59 241.06 148.4 154.59 152.62"/><polygon class="cls-12" points="241.06 148.4 346.51 150.51 346.51 288.32 241.06 306.59 241.06 148.4"/><polygon class="cls-13" points="154.59 215.49 219.97 224.33 241.06 148.4 177.79 175.82 154.59 199.02 154.59 215.49"/><polygon class="cls-14" points="241.06 148.4 256 224.33 346.51 220.07 346.51 150.51 241.06 148.4"/><g class="cls-2"><g class="cls-15"><path class="cls-16" d="M320.18,226.64a16,16,0,0,1-2.92,4.77v0c-5.9,6.6-14.2,7.6-21.8,8.52-5.62.79-12,2.06-15.73,7.79-3.24,5.14-2.35,12.72.92,17.53.64,1.24,2.66,3.44,3.16,3.44,0,0,.05,0,.06,0-3-5.38-2.82-13.68,1.58-17.84,4.65-4.61,10.92-4.18,16.49-5.67a77.45,77.45,0,0,0,9.88-3.1c-4.31,4.57-10,6.26-15.33,8.25-4.48,1.82-8.91,6.21-9.12,12.42-.14,4.28,1.47,9.42,5,10.88a20,20,0,0,0,6,.92c7.67,0,15.31-4.34,20.05-11.81,6.64-10,7.39-25.12,1.73-36.06"/><path class="cls-16" d="M298.65,211.61a29,29,0,0,0-3,.16c-10.2,1.18-19.27,10.64-21.87,22.79a37.75,37.75,0,0,0-.91,7.86c-.12,2.74.51,8.77,1.22,9.25A18.26,18.26,0,0,1,285,236.55c9.23-4.2,19.88-1.43,28.63-7.54,2.66-1.38,4.83-5.84,2.36-8.82-.71-.73-1.74-2.05-2.09-2.05s-.19.41.2,1.55c.36,3.93-2.9,6.26-5.55,7.19-5.61,2-11.54,1.58-17.27,2.64a12.08,12.08,0,0,1-1.68.27c-.35,0-.33-.15.62-.67,5.44-3,12.12-2.44,16.81-7.43,2.49-2.29,1.52-7-1.11-8.47a15.31,15.31,0,0,0-7.28-1.61"/></g></g><g class="cls-2"><g class="cls-17"><path class="cls-16" d="M213,220.41a16.63,16.63,0,0,1-2.62,4.77v0c-5.29,6.59-12.73,7.59-19.54,8.51-5,.79-10.73,2.06-14.1,7.8-2.91,5.13-2.11,12.71.82,17.53.58,1.23,2.39,3.44,2.83,3.44l.06,0c-2.67-5.38-2.53-13.68,1.41-17.85,4.18-4.61,9.79-4.18,14.79-5.67a63.32,63.32,0,0,0,8.85-3.1c-3.86,4.58-9,6.26-13.74,8.26a14.08,14.08,0,0,0-8.17,12.41c-.13,4.28,1.31,9.42,4.49,10.88a16.24,16.24,0,0,0,5.39.92c6.88,0,13.73-4.34,18-11.81,6-10,6.63-25.12,1.56-36"/><path class="cls-16" d="M193.7,205.37a23.45,23.45,0,0,0-2.66.17c-9.14,1.18-17.27,10.64-19.6,22.79a42.07,42.07,0,0,0-.82,7.85c-.1,2.74.46,8.77,1.1,9.25.64-7.2,4.84-12.91,9.75-15.12,8.28-4.2,17.82-1.43,25.67-7.54,2.38-1.37,4.33-5.84,2.1-8.82-.62-.73-1.55-2-1.87-2s-.16.41.18,1.55c.34,3.93-2.59,6.26-5,7.19-5,2-10.34,1.58-15.48,2.65a11.46,11.46,0,0,1-1.5.27c-.31,0-.3-.16.56-.68,4.86-3,10.85-2.44,15.06-7.42,2.24-2.3,1.36-7-1-8.47a12.44,12.44,0,0,0-6.52-1.62"/></g></g><polygon class="cls-18" points="154.59 152.62 131.39 207.46 213.64 215.9 241.06 148.4 154.59 152.62"/><polygon class="cls-19" points="241.06 148.4 257.93 213.79 363.39 209.57 346.51 150.51 241.06 148.4"/><path class="cls-20" d="M305.81,200l-13.59-23.3,4.91-12.57-2.74-11.75-3-3-17.86-.36c4.76,2.9,9.83,13.34,8.3,19.77s3.51,20.05,6.32,23.3,12.29,17.06,11.46,20c0,.1,6.22-.24,6.22-.24Z"/><path class="cls-21" d="M256.83,148.72c4.3-21.41,35.63-33.63,50.56-14.72s-13.32,36.74-2.66,52.37,9.66,28.63-.34,32.63-17.09-6.39-17.09-6.39l6.49-.26s7.27,5.28,8.43-2-10-11-16.83-25.31c-5.45-11.5,2-23,2-30,0-8-6.08-5.79-6.08-5.79"/><path class="cls-8" d="M304.73,186.37C294.07,170.74,322.39,153,307.39,134s-46.26-6.69-50.56,14.72l12.06.24c4.56-6.66,12.61-12,20.09-6.32s.43,15.41-.91,25.61-.33,18.43,4.31,23.51c4.45,4.86,10.35,11.36,9.92,17.73a5.83,5.83,0,0,1-.08.82c-1.16,7.32-8.43,2-8.43,2l-6.49.26S294.39,223,304.39,219,315.39,202,304.73,186.37Z"/></g></g></svg>