<?xml version="1.0" encoding="utf-8"?>
<!-- Generator: Adobe Illustrator 26.0.1, SVG Export Plug-In . SVG Version: 6.00 Build 0)  -->
<svg version="1.1" id="Layer_1" xmlns="http://www.w3.org/2000/svg" xmlns:xlink="http://www.w3.org/1999/xlink" x="0px" y="0px"
     viewBox="0 0 50 50" style="enable-background:new 0 0 50 50;" xml:space="preserve">
<style type="text/css">
       .favicon-top, .favicon-bottom {
            fill: #000;
       }

    @media (prefers-color-scheme: dark) {
       .favicon-top, .favicon-bottom {
            fill: #fff;
       }
    }

</style>
    <path class="favicon-top" d="M37.3,11.8L37.3,11.8l-0.2-0.2l-0.2-0.2C33.7,8.7,29.7,7.1,25.5,7c-4.2-0.1-8.3,1.2-11.6,3.8
	c-3.3,2.6-5.6,6.3-6.5,10.4c-0.9,4.1-0.3,8.4,1.7,12.1l0.1,0.1c1.2,2.3,3,4.3,5,5.9c2.1,1.6,4.5,2.7,7,3.2c2.6,0.5,5.2,0.5,7.7,0
	c2.5-0.6,4.9-1.7,7-3.3c2.1-1.6,3.8-3.6,5-5.9s1.9-4.9,2-7.5c0.1-2.6-0.3-5.2-1.3-7.6C40.7,15.8,39.2,13.6,37.3,11.8L37.3,11.8z
	 M25,12.6c3,0,6,1.1,8.3,3.2c0.1,0.1,0.2,0.2,0.3,0.4c-0.3,0.5-2.4,2.4-9,3.2c-5.1,0.6-8.9,1.5-11.6,2.9c0.6-2.7,2.2-5.2,4.3-6.9
	C19.5,13.6,22.2,12.7,25,12.6z M25,37.4c-0.2,0-0.4,0-0.7,0c-1.5-0.2-3-0.7-3.8-1.8c-0.5-0.7-0.5-1.4-0.1-2.1c0.3-0.4,0.8-0.7,1.3-1
	c1.4-0.7,2.9-1,4.5-1.5c3.7-0.8,7.3-2.9,9.3-6.1c-2.2,1.7-4.8,2.7-7.6,2.9c-2.1,0.2-4.3,0-6.4,0.3c-2.6,0.3-5.2,2-6,4.6
	c-0.5-0.6-0.9-1.3-1.3-2c-0.7-1.4-0.4-2-0.3-2.2c0.3-0.6,2.1-2.7,11.3-3.7c5.3-0.6,9.2-1.9,11.6-3.9c0.6,1.9,0.8,3.8,0.5,5.8
	c-0.3,1.9-1,3.8-2.2,5.4c-1.1,1.6-2.7,2.9-4.4,3.8C28.9,36.9,27,37.4,25,37.4L25,37.4z"/>
</svg>
