<svg width="184" height="31" viewBox="0 0 184 31" fill="none" xmlns="http://www.w3.org/2000/svg">
<path d="M26.208 4.04078L26.1757 4.0085L26.073 3.91168L25.9028 3.75029C23.2744 1.43074 19.9162 0.105879 16.4121 0.00607949C12.908 -0.09372 9.47971 1.03786 6.72357 3.20405C3.96742 5.37024 2.05775 8.43397 1.32667 11.8624C0.595582 15.2909 1.08934 18.8671 2.72208 21.9692L2.78076 22.0924C3.80818 24.0129 5.24163 25.6864 6.98141 26.9967C8.72119 28.307 10.7255 29.2225 12.855 29.6796C14.9845 30.1366 17.188 30.1243 19.3122 29.6435C21.4365 29.1626 23.4305 28.2247 25.1555 26.8951C26.8805 25.5654 28.2952 23.876 29.301 21.9442C30.3069 20.0124 30.8799 17.8846 30.98 15.7089C31.0802 13.5332 30.7052 11.3619 29.8811 9.34582C29.057 7.32977 27.8035 5.51745 26.208 4.03494V4.04078ZM15.9997 4.7098C18.54 4.70913 20.9905 5.65 22.8776 7.35064C22.9736 7.44066 23.0557 7.54452 23.1211 7.65876C22.9069 8.10477 21.1317 9.6746 15.583 10.2996C11.3518 10.772 8.18276 11.5672 5.95271 12.7292C6.47417 10.4535 7.7514 8.42175 9.57605 6.96534C11.4007 5.50893 13.665 4.71384 15.9997 4.7098ZM15.9997 25.3201C15.8119 25.3201 15.627 25.3201 15.4421 25.3201C14.1687 25.1499 12.9157 24.7333 12.2438 23.8148C11.8477 23.1898 11.8125 22.6646 12.1734 22.0983C12.4569 21.7509 12.8217 21.4788 13.2356 21.3061C14.3858 20.6957 15.6769 20.4551 16.9797 20.0971C20.0343 19.4047 23.0243 17.6998 24.7232 15.0296C22.8898 16.4303 20.6955 17.2801 18.397 17.4798C16.6716 17.6411 14.8289 17.4387 13.0419 17.7057C10.8441 17.9316 8.69919 19.3401 8.02137 21.5408C7.60039 21.0286 7.23084 20.4763 6.91808 19.8917C6.3459 18.718 6.59238 18.2456 6.67747 18.0901C6.95329 17.5766 8.43803 15.8336 16.1053 14.9768C20.4891 14.4868 23.7813 13.3513 25.7473 11.6993C26.2797 13.2502 26.4339 14.9059 26.197 16.5285C25.9601 18.1511 25.339 19.6936 24.3854 21.0276C23.4317 22.3616 22.1732 23.4484 20.7146 24.1976C19.256 24.9468 17.6394 25.3367 15.9997 25.3348V25.3201Z" fill="white"/>
<path d="M62.3887 10.3638C62.3887 3.90844 57.644 0 49.9855 0H37.9961V29.1373H43.4098V20.6455H49.9855C50.3606 20.6524 50.7358 20.6387 51.1094 20.6045L57.063 29.1373H62.8904L56.1886 19.5628C60.141 18.0252 62.3887 14.777 62.3887 10.3638ZM49.7361 16.1913H43.4098V4.5804H49.7361C54.4808 4.5804 56.9368 6.70186 56.9368 10.3638C56.9368 14.0258 54.4808 16.1913 49.7361 16.1913Z" fill="white"/>
<path d="M85.7504 4.74767C87.2167 4.72538 88.6707 5.01857 90.0138 5.60735C91.3569 6.19614 92.5578 7.06676 93.535 8.16023L97.0297 4.87092C94.3243 1.70778 90.2457 0 85.501 0C76.5514 0 69.8906 6.28523 69.8906 14.9853C69.8906 23.6855 76.5514 29.9707 85.4599 29.9707C90.2457 29.9707 94.3243 28.2629 97.0297 25.0998L93.535 21.7694C92.5661 22.8761 91.3679 23.7585 90.0235 24.3554C88.6792 24.9523 87.2211 25.2494 85.7504 25.226C79.7146 25.226 75.3425 20.9801 75.3425 14.9853C75.3425 8.99063 79.7146 4.74767 85.7504 4.74767Z" fill="white"/>
<path d="M124.511 12.0305H109.443V0H104.029V29.1373H109.443V16.6491H124.511V29.1373H129.921V0H124.511V12.0305Z" fill="white"/>
<path d="M145.333 0H139.922V29.1373H145.333V0Z" fill="white"/>
<path d="M168.07 0H155.332V29.1373H168.07C177.521 29.1373 183.971 23.3099 183.971 14.5687C183.971 5.82747 177.521 0 168.07 0ZM167.82 24.5598H160.746V4.5804H167.82C174.314 4.5804 178.519 8.53286 178.519 14.5569C178.519 20.581 174.314 24.5598 167.82 24.5598Z" fill="white"/>
</svg>
