<svg width="845" height="556" viewBox="0 0 845 556" fill="none" xmlns="http://www.w3.org/2000/svg">
<path d="M39.1233 243.143C7.3194 136.749 51.6226 16.4708 178.796 15.0735C352.717 13.1625 366.404 92.0165 497.727 198.329C564.984 252.776 723.844 196.716 791.099 299.872C858.355 403.028 782.088 494.372 661.544 516.327C540.999 538.282 455.495 534.364 325.985 485.186C210.528 441.345 70.9273 349.538 39.1233 243.143Z" fill="#F5E9FF"/>
<path d="M339.887 207.684C295.876 143.844 208.405 142.224 177.628 182.731C146.852 223.239 177.628 263.746 192.207 284.81C206.785 305.874 234.97 348.504 207.109 378.22C179.248 407.937 166.29 391.75 171.149 380.408C176.009 369.066 187.347 375.547 187.347 375.547C186.216 372.62 184.208 370.116 181.598 368.375C178.988 366.635 175.905 365.744 172.769 365.825C161.43 365.825 153.331 377.167 153.331 391.75C153.331 405.101 166.29 424.156 211.645 412.814C257 401.472 244.657 319.582 244.657 319.582L258.344 256.39L339.887 207.684Z" fill="url(#paint0_radial_48_2773)"/>
<path d="M293.203 235.617L312.058 178.907C265.828 144.719 202.784 149.661 177.612 182.779C175.162 185.972 172.994 189.371 171.133 192.939L213.605 245.177L275.579 246.182L293.203 235.617Z" fill="url(#paint1_radial_48_2773)"/>
<path d="M308.591 204.718C369.351 72.8258 483.079 67.8515 522.408 135.288C561.738 202.725 492.636 357.529 567.861 402.946C625.251 437.588 636.104 375.222 630.305 344.194C624.506 313.165 675.369 282.784 688.117 308.547C695.665 323.843 689.461 338.296 656.984 335.606C656.984 335.606 687.485 332.592 674.883 317.329C670.671 312.257 657.292 311.123 651.152 329.854C645.013 348.585 674.688 392.835 659.365 424.172C643.377 456.869 595.754 481.158 537.473 446.742C530.37 442.495 523.93 437.227 518.359 431.106L501.594 412.975" fill="url(#paint2_radial_48_2773)"/>
<path d="M429.852 94.0195C407.32 97.7624 383.719 109.056 361.819 129.067L393.405 176.558L451.719 189.99L483.144 185.032L447.508 121.937L429.852 94.0195Z" fill="url(#paint3_radial_48_2773)"/>
<path d="M432.588 209.401C336.37 35.2831 188.966 -1.98376 93.3962 85.5124C-2.17362 173.009 59.3798 273.467 88.5367 305.873C117.694 338.279 72.3384 360.963 65.8591 348.001C55.476 327.245 82.0574 325.317 82.0574 325.317C82.0574 325.317 65.8591 307.493 49.6608 325.317C39.6017 336.367 44.8014 365.824 83.6772 364.204C122.553 362.584 153.33 330.178 125.793 236.2C104.249 162.703 203.544 138.82 261.858 211.896" fill="url(#paint4_radial_48_2773)"/>
<g style="mix-blend-mode:multiply" opacity="0.3">
<path d="M352.57 210.276C265.099 117.919 164.67 122.78 129.033 155.186C93.3972 187.592 107.976 242.682 122.554 281.569C137.133 320.456 117.695 351.242 83.6782 364.205C122.554 362.584 153.331 330.178 125.794 236.201C104.25 162.704 203.545 138.821 261.859 211.896L352.829 210.568L352.57 210.276Z" fill="#B58ABF"/>
</g>
<path d="M378.876 131.594L264.192 173.009L282.674 211.556L432.589 209.369C417.464 181.63 399.46 155.561 378.876 131.594Z" fill="url(#paint5_radial_48_2773)"/>
<g style="mix-blend-mode:multiply" opacity="0.05">
<path d="M520.594 433.57C527.802 426.116 545.572 410.416 571.489 405.02C570.29 404.372 569.092 403.691 567.861 402.946C518.424 373.1 531.285 296.006 534.768 227.532L517.986 211.103V430.848L518.424 431.301C519.136 432.079 519.865 432.824 520.594 433.57Z" fill="black"/>
</g>
<g style="mix-blend-mode:multiply" opacity="0.3">
<path d="M639.62 437.118C620.392 457.599 569.724 452.43 514.31 383.13L475.288 384.75L518.44 431.366C523.968 437.409 530.341 442.621 537.36 446.84C595.674 481.352 643.361 457.048 659.365 424.334C663.804 415.244 664.549 404.113 663.496 392.69C659.464 409.297 651.244 424.594 639.62 437.118Z" fill="#B58ABF"/>
</g>
<g style="mix-blend-mode:multiply" opacity="0.3">
<path d="M65.0343 317.41C60.2882 317.41 54.9752 319.468 49.6621 325.317C42.5187 333.159 43.0856 350.27 57.9233 358.971C45.1752 340.807 51.6545 326.37 65.0343 317.41Z" fill="#B58ABF"/>
</g>
<path d="M207.109 214.537V426.116L347.176 463.999V207.7L207.109 214.537Z" fill="#B59478"/>
<path d="M347.176 207.7L518.003 211.119V434.412L347.176 463.999V207.7Z" fill="#C6A78B"/>
<path d="M207.109 316.406L313.014 330.729L347.176 207.7L244.689 252.128L207.109 289.719V316.406Z" fill="#A38066"/>
<path d="M347.176 207.7L371.376 330.729L518.003 323.81V211.119L347.176 207.7Z" fill="#B7977D"/>
<path d="M207.109 214.537L169.529 303.378L302.76 317.054L347.176 207.7L207.109 214.537Z" fill="#C6AB99"/>
<path d="M347.176 207.7L374.502 313.635L545.329 306.797L518.003 211.119L347.176 207.7Z" fill="#D8B79C"/>
<path d="M452.06 291.291L430.046 253.538L437.999 233.171L433.561 214.132L428.702 209.271L399.771 208.688C407.482 213.387 415.694 230.303 413.216 240.721C410.738 251.14 418.902 273.208 423.453 278.474C428.005 283.74 443.361 306.117 442.017 310.88C442.017 311.042 452.092 310.491 452.092 310.491L452.06 291.291Z" fill="#BA9B85"/>
<path d="M372.721 208.202C379.686 173.511 430.435 153.711 454.619 184.351C478.803 214.991 433.043 243.881 450.31 269.206C467.578 294.532 465.958 315.596 449.76 322.077C433.561 328.558 422.077 311.723 422.077 311.723L432.59 311.302C432.59 311.302 444.366 319.857 446.245 308.061C448.124 296.265 430.046 290.238 418.983 267.051C410.155 248.418 422.223 229.784 422.223 218.442C422.223 205.48 412.374 209.061 412.374 209.061" fill="url(#paint6_radial_48_2773)"/>
<path d="M450.31 269.206C433.043 243.881 478.917 215.137 454.619 184.351C430.322 153.565 379.686 173.511 372.721 208.202L392.256 208.591C399.642 197.8 412.682 189.147 424.798 198.35C436.914 207.554 425.495 223.319 423.324 239.846C421.154 256.373 422.79 269.708 430.306 277.94C437.514 285.814 447.071 296.346 446.374 306.668C446.362 307.113 446.319 307.557 446.245 307.996C444.366 319.857 432.59 311.237 432.59 311.237L422.077 311.658C422.077 311.658 433.561 328.558 449.76 322.077C465.958 315.595 467.578 294.531 450.31 269.206Z" fill="url(#paint7_radial_48_2773)"/>
<g clip-path="url(#clip0_48_2773)">
<path d="M487.712 372.233C486.777 360.817 481.641 350.162 473.307 342.35C469.009 338.121 463.81 334.929 458.104 333.016C452.398 331.103 446.334 330.519 440.37 331.308C430.72 332.415 421.752 336.858 414.999 343.875C410.235 348.622 406.461 354.277 403.898 360.509C401.336 366.741 400.036 373.424 400.077 380.167C400.04 382.753 400.233 385.337 400.653 387.889C402.138 399.494 407.952 410.099 416.92 417.559C421.292 421.308 426.425 424.052 431.962 425.599C437.499 427.146 443.304 427.459 448.974 426.517C459.517 424.988 469.109 419.547 475.862 411.266C480.431 405.948 483.845 399.728 485.886 393.007C487.926 386.286 488.548 379.21 487.712 372.233ZM414.942 372.233C414.692 372.04 414.942 371.712 414.942 371.442C418.399 359.068 425.793 350.497 438.411 347.002C439.585 346.703 440.779 346.49 441.983 346.365C442.943 346.23 443.904 346.211 444.557 346.172C451.402 346.164 458.019 348.647 463.186 353.161C464.761 354.512 464.761 355.091 463.186 356.423C460.278 358.71 456.959 360.414 453.41 361.442C448.496 362.867 443.491 363.957 438.43 364.704C430.57 365.953 422.95 368.421 415.844 372.021C415.537 372.175 415.23 372.426 414.999 372.195L414.942 372.233ZM465.932 400.939C463.179 404.415 459.671 407.212 455.676 409.116C451.681 411.02 447.306 411.98 442.886 411.923C439.92 411.953 437.038 410.935 434.743 409.046C431.401 406.209 431.67 402.367 435.357 399.993C437.951 398.42 440.741 397.199 443.654 396.363C447.504 395.301 451.252 393.893 454.851 392.155C460.292 389.373 464.959 385.273 468.429 380.225C468.801 379.758 469.087 379.229 469.274 378.661C468.868 378.719 468.495 378.917 468.218 379.221C462.144 384.017 454.697 386.724 446.977 386.943C442.894 386.936 438.819 387.298 434.8 388.024C431.821 388.563 429.026 389.851 426.675 391.768C424.324 393.685 422.495 396.169 421.356 398.989L421.049 399.684C420.799 400.263 420.492 400.186 420.185 399.684C418.561 397.652 417.371 395.306 416.689 392.792C416.508 392.105 416.495 391.385 416.652 390.692C416.81 389.999 417.132 389.355 417.592 388.815C418.88 387.36 420.44 386.173 422.182 385.321C426.392 383.202 430.851 381.626 435.453 380.63C440.255 379.453 445.152 378.893 449.953 377.831C456.9 376.519 463.519 373.835 469.428 369.936C470.223 369.389 470.986 368.796 471.713 368.16C472.366 367.6 472.635 367.812 472.866 368.527C473.599 370.928 474.032 373.411 474.152 375.92C474.776 385.008 471.824 393.978 465.932 400.9V400.939Z" fill="#A38066"/>
</g>
<g clip-path="url(#clip1_48_2773)">
<path d="M271.059 331H274.007C290.059 331.929 302.226 339.564 311.139 352.502C317.369 361.528 320.467 372.318 319.966 383.243C319.899 393.071 316.669 402.622 310.747 410.504C305.915 416.994 298.987 421.65 291.116 423.696L290.127 423.932C289.705 424.068 289.256 424.095 288.82 424.011C288.385 423.927 287.978 423.736 287.638 423.454C287.298 423.172 287.035 422.81 286.874 422.4C286.714 421.991 286.66 421.547 286.719 421.112C286.821 417.531 287.009 413.95 287.145 410.369C287.401 407.622 287.401 404.857 287.145 402.11C286.898 400.479 286.318 398.916 285.441 397.515C284.896 396.637 284.981 396.502 286.037 396.502C288.313 396.566 290.591 396.475 292.854 396.232C295.474 396.002 297.954 394.962 299.945 393.259C301.936 391.555 303.336 389.275 303.947 386.739C305.087 383.005 305.43 379.076 304.953 375.203C304.537 372.753 303.538 370.437 302.039 368.447C301.736 368.059 301.535 367.604 301.451 367.121C301.368 366.638 301.406 366.142 301.562 365.677C302.48 362.25 302.433 358.64 301.425 355.238C301.357 354.893 301.167 354.582 300.889 354.363C300.611 354.143 300.264 354.028 299.909 354.039C298.651 353.974 297.391 354.14 296.194 354.529C294.089 355.193 292.062 356.077 290.144 357.164C289.862 357.34 289.539 357.444 289.205 357.464C288.872 357.485 288.538 357.422 288.236 357.282C283.746 355.322 278.926 354.21 274.024 354.005C272.401 353.962 270.777 354.047 269.167 354.258C268.705 354.349 268.229 354.33 267.776 354.204C267.323 354.077 266.906 353.847 266.56 353.532C264.457 351.549 262.102 349.846 259.556 348.465C258.821 348.095 258.043 347.816 257.238 347.637C257.08 347.581 256.91 347.559 256.742 347.574C256.574 347.589 256.412 347.64 256.266 347.723C256.12 347.807 255.994 347.921 255.897 348.058C255.8 348.195 255.734 348.351 255.705 348.516C254.429 351.887 254.157 355.552 254.921 359.072C255.038 359.474 255.042 359.9 254.934 360.305C254.826 360.709 254.61 361.077 254.307 361.369C252.136 363.725 250.895 366.777 250.814 369.967C250.427 374.307 251.009 378.678 252.518 382.77C253.388 384.907 254.705 386.837 256.382 388.432C258.059 390.028 260.059 391.252 262.248 392.026C264.186 392.784 266.166 393.433 268.179 393.968C269.099 394.239 269.133 394.357 268.536 395.117C267.558 396.376 266.877 397.836 266.543 399.39C266.498 399.686 266.357 399.96 266.142 400.17C265.927 400.38 265.649 400.515 265.35 400.556C263.296 401.154 261.095 401.012 259.136 400.156C257.177 399.299 255.587 397.784 254.648 395.877C254.01 394.531 253.245 393.247 252.365 392.043C251.321 390.804 250.011 389.811 248.53 389.138C247.998 388.877 247.419 388.722 246.826 388.682C245.923 388.682 245.582 389.239 246.042 389.999C246.333 390.499 246.694 390.954 247.116 391.35C249.25 393.125 250.76 395.527 251.427 398.208C253.131 404.373 257.954 406.248 263.015 406.653C263.714 406.653 264.413 406.653 265.111 406.653C265.81 406.653 266.1 406.873 266.083 407.565C265.946 411.079 265.878 414.592 265.691 418.122C265.691 419.997 264.089 420.74 262.282 419.811C259.902 418.616 257.657 417.172 255.585 415.504C245.025 407.151 237.998 395.186 235.886 381.959C235.437 379.477 235.192 376.964 235.153 374.443V371.301C235.231 363.795 237.168 356.423 240.794 349.833C243.437 344.81 247.269 340.496 251.961 337.261C256.652 334.025 262.065 331.964 267.736 331.253C268.724 331.118 269.9 331.084 271.059 331Z" fill="#A38066"/>
<path d="M254.921 397.921C255.189 397.979 255.431 398.123 255.609 398.331C255.788 398.538 255.893 398.797 255.909 399.069C255.909 399.373 255.824 399.644 255.483 399.627C254.818 399.627 254.529 399.137 254.426 398.563C254.324 397.988 254.495 398.039 254.921 397.921Z" fill="#A38066"/>
<path d="M262.402 402.363C262.398 402.457 262.375 402.55 262.332 402.635C262.289 402.719 262.229 402.794 262.154 402.853C262.08 402.912 261.993 402.955 261.901 402.978C261.808 403.002 261.712 403.005 261.618 402.988C261.124 402.988 260.698 402.751 260.664 402.211C260.63 401.67 261.039 401.603 261.43 401.62C261.659 401.591 261.889 401.653 262.071 401.792C262.253 401.932 262.372 402.137 262.402 402.363Z" fill="#A38066"/>
<path d="M264.771 402.988C264.362 402.988 263.97 402.785 263.987 402.312C264.004 401.839 264.396 401.586 264.856 401.603C265.316 401.62 265.657 401.806 265.657 402.295C265.657 402.785 265.248 402.988 264.771 402.988Z" fill="#A38066"/>
<path d="M258.891 401.299C258.891 401.755 258.602 401.89 258.261 401.84C257.92 401.789 257.221 401.569 257.204 400.944C257.187 400.319 257.562 400.404 257.937 400.438C258.175 400.441 258.403 400.53 258.579 400.689C258.755 400.847 258.866 401.065 258.891 401.299Z" fill="#A38066"/>
<path d="M253.745 395.979C253.745 396.367 253.745 396.705 253.37 396.688C252.995 396.671 252.569 396.198 252.501 395.692C252.433 395.185 252.586 395.033 252.978 395.083C253.37 395.134 253.643 395.624 253.745 395.979Z" fill="#A38066"/>
<path d="M251.632 393.665C251.44 393.635 251.263 393.542 251.13 393.402C250.998 393.261 250.916 393.08 250.899 392.888C250.899 392.634 250.985 392.381 251.291 392.398C251.488 392.421 251.67 392.511 251.807 392.653C251.944 392.794 252.027 392.979 252.041 393.175C252.092 393.462 251.973 393.631 251.632 393.665Z" fill="#A38066"/>
<path d="M249.638 390.489C249.803 390.499 249.959 390.565 250.08 390.676C250.201 390.786 250.28 390.935 250.303 391.097C250.303 391.401 250.184 391.536 249.877 391.502C249.711 391.494 249.553 391.427 249.434 391.311C249.314 391.196 249.242 391.042 249.229 390.877C249.195 390.624 249.349 390.489 249.638 390.489Z" fill="#A38066"/>
</g>
<defs>
<radialGradient id="paint0_radial_48_2773" cx="0" cy="0" r="1" gradientUnits="userSpaceOnUse" gradientTransform="translate(218.585 144.658) rotate(62.4908) scale(321.495 426.619)">
<stop stop-color="#CA72B7"/>
<stop offset="0.237847" stop-color="#914680"/>
<stop offset="1" stop-color="#3F2660"/>
</radialGradient>
<radialGradient id="paint1_radial_48_2773" cx="0" cy="0" r="1" gradientUnits="userSpaceOnUse" gradientTransform="translate(277.232 160.727) scale(102.422 102.452)">
<stop/>
<stop offset="1" stop-color="#413463" stop-opacity="0"/>
</radialGradient>
<radialGradient id="paint2_radial_48_2773" cx="0" cy="0" r="1" gradientUnits="userSpaceOnUse" gradientTransform="translate(442.354 77.2785) rotate(53.1006) scale(506.978 788.487)">
<stop stop-color="#CA72B7"/>
<stop offset="0.237847" stop-color="#914680"/>
<stop offset="1" stop-color="#3F2660"/>
</radialGradient>
<radialGradient id="paint3_radial_48_2773" cx="0" cy="0" r="1" gradientUnits="userSpaceOnUse" gradientTransform="translate(30409.2 12914.7) scale(8105.73 6411.78)">
<stop/>
<stop offset="1" stop-color="#413463" stop-opacity="0"/>
</radialGradient>
<radialGradient id="paint4_radial_48_2773" cx="0" cy="0" r="1" gradientUnits="userSpaceOnUse" gradientTransform="translate(178.623 26.5991) rotate(48.748) scale(471.511 757.127)">
<stop stop-color="#CA72B7"/>
<stop offset="0.237847" stop-color="#914680"/>
<stop offset="1" stop-color="#3F2660"/>
</radialGradient>
<radialGradient id="paint5_radial_48_2773" cx="0" cy="0" r="1" gradientUnits="userSpaceOnUse" gradientTransform="translate(48934.4 13248.5) scale(10689.9 5075.97)">
<stop/>
<stop offset="1" stop-color="#413463" stop-opacity="0"/>
</radialGradient>
<radialGradient id="paint6_radial_48_2773" cx="0" cy="0" r="1" gradientUnits="userSpaceOnUse" gradientTransform="translate(471 111.499) rotate(88.7768) scale(220.121 256.216)">
<stop stop-color="#CA72B7"/>
<stop offset="0.237847" stop-color="#914680"/>
<stop offset="1" stop-color="#3F2660"/>
</radialGradient>
<radialGradient id="paint7_radial_48_2773" cx="0" cy="0" r="1" gradientUnits="userSpaceOnUse" gradientTransform="translate(404.158 162.743) rotate(67.0348) scale(183.358 213.367)">
<stop stop-color="#CA72B7"/>
<stop offset="0.237847" stop-color="#914680"/>
<stop offset="1" stop-color="#3F2660"/>
</radialGradient>
<clipPath id="clip0_48_2773">
<rect width="88" height="96" fill="white" transform="translate(400 330.999)"/>
</clipPath>
<clipPath id="clip1_48_2773">
<rect width="85" height="93" fill="white" transform="translate(235 331)"/>
</clipPath>
</defs>
</svg>
